<svg width="600" height="600" xmlns="http://www.w3.org/2000/svg">

 <g>
  <title>Layer 1</title>
  <ellipse stroke="#000" ry="66.5" rx="66.5" id="svg_1" cy="128" cx="137.5" fill="#000000"/>
  <ellipse stroke="#000" ry="110.5" rx="110.5" id="svg_2" cy="461" cx="461.5" fill="#000000"/>
  <path stroke="#000" id="svg_3" d="m14.54786,539.72941l113.5,-198.62499l113.5,198.62499l-226.99999,0z" fill="#000000"/>
  <rect stroke="#000" id="svg_5" height="173.00001" width="174.00001" y="25.5" x="372" fill="#000000"/>
  <path stroke="#333333" id="svg_6" d="m256.53392,294.73752l-25.921,-25.921l0,12.9605l-10.3929,0l0,-57.03951l57.0395,0l0,10.3929l-12.96051,0l25.92101,25.92101l25.92101,-25.92101l-12.96051,0l0,-10.3929l57.0395,0l0,57.03951l-10.39291,0l0,-12.9605l-25.921,25.921l25.921,25.92101l0,-12.96051l10.39291,0l0,57.03951l-57.0395,0l0,-10.39291l12.96051,0l-25.92101,-25.921l-25.92101,25.921l12.96051,0l0,10.39291l-57.0395,0l0,-57.03951l10.3929,0l0,12.96051l25.921,-25.92101z" fill="#4c4c4c"/>
  <path id="svg_7" d="m30.69,91.92371l99.74974,-72.57335l99.74997,72.57335l-38.10093,117.42665l-123.29774,0l-38.10104,-117.42665z" stroke="#000" fill="#000000"/>
 </g>
</svg>